<svg id="eXTwQ0C4v2i1" xmlns="http://www.w3.org/2000/svg" xmlns:xlink="http://www.w3.org/1999/xlink" viewBox="0 0 24 24" shape-rendering="geometricPrecision" text-rendering="geometricPrecision"><path d="M12,2.387777L12,9v.778514l7.035414.028425v-2.416203l-3.26898-4.230738L12,2.217219" transform="translate(0 0.000002)" fill="#807e7e" stroke-width="0.5"/><path d="M0,0h24v24h-24L0,0Z" fill="none"/><path d="M20,9c-.04-4.39-3.6-7.93-8-7.93s-7.96,3.54-8,7.93v6c0,4.42,3.58,8,8,8s8-3.58,8-8v-6ZM18,9h-5v-5.84c2.81.47,4.96,2.9,5,5.84ZM11,3.16L11,9h-5c.04-2.94,2.19-5.37,5-5.84ZM18,15c0,3.31-2.69,6-6,6s-6-2.69-6-6v-4h12v4Z"/></svg>
