<svg id="Layer_1" data-name="Layer 1" xmlns="http://www.w3.org/2000/svg" viewBox="0 0 743.27406 128.73645">
  <defs>
    <style>
      .cls-1 {
        fill: #fff;
      }

      .cls-2 {
        fill: #00c4b4;
      }

      .cls-3 {
        fill: #3700b3;
      }
    </style>
  </defs>
  <g>
    <path class="cls-1" d="M136.24373,135.10019c23.2506-40.28619,46.1856-80.02548,69.42458-120.29147-3.48476,0-6.03378-.14481-8.55133.07349a3.93871,3.93871,0,0,0-2.72383,1.56656c-6.42365,11.05048-12.6896,22.1924-19.07379,33.266-7.43837,12.90212-14.96395,25.75393-22.43467,38.63747q-10.51237,18.12869-20.94307,36.30439a3.073,3.073,0,0,0,.00981,2.47308C133.19591,129.694,134.63839,132.16218,136.24373,135.10019Zm-9.48152-16.962c19.9808-34.61537,39.63659-68.66766,59.643-103.3275-3.51157,0-6.15143-.11535-8.7707.06638a3.46929,3.46929,0,0,0-2.40425,1.411c-4.24221,7.13374-8.36651,14.33769-12.51891,21.52481Q151.34462,57.48693,139.989,77.1673c-5.78333,10.05313-11.55052,20.11606-17.21908,30.23385a4.52854,4.52854,0,0,0-.40708,3.54177A72.364,72.364,0,0,0,126.76221,118.13823Zm-9.443-17.04686C133.9258,72.32693,150.34993,43.87853,166.9024,15.208c-9.76237-1.19428-9.802-1.10482-13.95,6.15447q-18.81858,32.934-37.73864,65.80986C111.76772,93.167,111.9943,95.32643,117.31916,101.09137ZM58.93976,68.24753c4.447,7.84412,8.83335,15.72663,13.35731,23.52934,8.29631,14.3091,17.05463,28.36775,24.84363,42.94575,3.4651,6.48532,7.0067,10.51242,14.97638,7.78383a47.55048,47.55048,0,0,0-1.99706-4.3427C98.11809,117.352,85.8751,96.67524,74.17757,75.69423,70.67124,69.40519,66.88006,65.583,58.93976,68.24753Zm14.633,74.26985c-.73222-1.53568-1.45447-3.34946-2.41825-5.02436Q59.66609,117.52858,48.091,97.614q-8.124-13.95411-16.43259-27.79969a4.52254,4.52254,0,0,0-2.86073-2.0461,87.86653,87.86653,0,0,0-8.78619-.09667C25.62127,77.45,30.8613,86.65608,36.17112,95.82185c7.502,12.94967,15.4428,25.66511,22.42126,38.88954C62.01121,141.1902,65.61516,145.18219,73.57275,142.51738Zm19.603.45689c-1.09247-2.156-1.893-3.93851-2.86507-5.622Q78.98883,117.74353,67.60626,98.17,59.28945,83.87283,50.86873,69.63663c-.473-.79789-1.3969-1.80408-2.17424-1.86158-2.96152-.21884-5.94888-.08824-9.42569-.08824,14.74935,25.54813,29.09976,50.40529,43.46463,75.28746Zm38.35519-.52636c-.95393-1.79618-1.82123-3.55089-2.79536-5.24422q-11.289-19.62444-22.62306-39.22289Q97.90361,83.8472,89.49641,69.82992a4.527,4.527,0,0,0-2.85166-2.06085,86.77411,86.77411,0,0,0-8.74873-.09741c4.75912,8.40254,9.13863,16.286,13.661,24.08658,8.29568,14.3093,17.00247,28.393,24.8692,42.93246C119.86377,141.04411,123.35971,145.288,131.531,142.44791ZM107.4072,84.84078c13.52786-23.41919,26.82519-46.43938,40.45494-70.03495a55.83221,55.83221,0,0,1-5.62968-.031c-3.34735-.38993-5.26972.62788-7.02874,3.91429C129.989,28.43181,124.12715,37.827,118.56845,47.38721,113.67388,55.80514,108.76,64.21465,104.072,72.74734a7.61539,7.61539,0,0,0-.65014,5.32653C104.082,80.24081,105.72958,82.107,107.4072,84.84078Z" transform="translate(-20.01144 -14.63586)"/>
    <path class="cls-2" d="M136.24373,135.10019c-1.60534-2.938-3.04782-5.40619-4.2923-7.97046a3.073,3.073,0,0,1-.00981-2.47308Q142.34,106.46258,152.88469,88.35226c7.47072-12.88354,14.9963-25.73535,22.43467-38.63747,6.38419-11.07362,12.65014-22.21554,19.07379-33.266a3.93871,3.93871,0,0,1,2.72383-1.56656c2.51755-.2183,5.06657-.07349,8.55133-.07349C182.42933,55.07471,159.49433,94.814,136.24373,135.10019Z" transform="translate(-20.01144 -14.63586)"/>
    <path class="cls-2" d="M126.76221,118.13823a72.364,72.364,0,0,1-4.39942-7.19531,4.52854,4.52854,0,0,1,.40708-3.54177c5.66856-10.11779,11.43575-20.18072,17.21908-30.23385Q151.319,57.47221,162.71138,37.81293c4.1524-7.18712,8.2767-14.39107,12.51891-21.52481a3.46929,3.46929,0,0,1,2.40425-1.411c2.61927-.18173,5.25913-.06638,8.7707-.06638C166.3988,49.47057,146.743,83.52286,126.76221,118.13823Z" transform="translate(-20.01144 -14.63586)"/>
    <path class="cls-2" d="M117.31916,101.09137c-5.32486-5.76494-5.55144-7.92442-2.10541-13.91908q18.904-32.885,37.73864-65.80986c4.148-7.25929,4.18764-7.34875,13.95-6.15447C150.34993,43.87853,133.9258,72.32693,117.31916,101.09137Z" transform="translate(-20.01144 -14.63586)"/>
    <path class="cls-3" d="M58.93976,68.24753c7.9403-2.66457,11.73148,1.15766,15.23781,7.4467C85.8751,96.67524,98.11809,117.352,110.12,138.16375a47.55048,47.55048,0,0,1,1.99706,4.3427c-7.96968,2.72859-11.51128-1.29851-14.97638-7.78383-7.789-14.578-16.54732-28.63665-24.84363-42.94575C67.77311,83.97416,63.3868,76.09165,58.93976,68.24753Z" transform="translate(-20.01144 -14.63586)"/>
    <path class="cls-3" d="M73.57275,142.51738c-7.95759,2.66481-11.56154-1.32718-14.98037-7.806C51.61392,121.487,43.67307,108.77152,36.17112,95.82185,30.8613,86.65608,25.62127,77.45,20.01144,67.67156a87.86653,87.86653,0,0,1,8.78619.09667,4.52254,4.52254,0,0,1,2.86073,2.0461Q39.9859,83.64726,48.091,97.614q11.58923,19.90614,23.06355,39.879C72.11828,139.16792,72.84053,140.9817,73.57275,142.51738Z" transform="translate(-20.01144 -14.63586)"/>
    <path class="cls-3" d="M93.17577,142.97427H82.73343C68.36856,118.0921,54.01815,93.23494,39.2688,67.68681c3.47681,0,6.46417-.1306,9.42569.08824.77734.0575,1.70122,1.06369,2.17424,1.86158Q59.303,83.86451,67.60626,98.17q11.38518,19.57193,22.70444,39.18225C91.28274,139.03576,92.0833,140.81831,93.17577,142.97427Z" transform="translate(-20.01144 -14.63586)"/>
    <path class="cls-3" d="M131.531,142.44791c-8.17125,2.84012-11.66719-1.4038-15.10479-7.75721-7.86673-14.53951-16.57352-28.62316-24.8692-42.93246-4.52232-7.8006-8.90183-15.684-13.661-24.08658a86.77411,86.77411,0,0,1,8.74873.09741,4.527,4.527,0,0,1,2.85166,2.06085Q97.9148,83.83919,106.11254,97.9808q11.37069,19.57708,22.62306,39.22289C129.70973,138.897,130.577,140.65173,131.531,142.44791Z" transform="translate(-20.01144 -14.63586)"/>
    <path class="cls-2" d="M107.4072,84.84078c-1.67762-2.73383-3.32522-4.6-3.98531-6.76691a7.61539,7.61539,0,0,1,.65014-5.32653c4.688-8.53269,9.60185-16.9422,14.49642-25.36013,5.5587-9.56021,11.42051-18.9554,16.63527-28.69812,1.759-3.28641,3.68139-4.30422,7.02874-3.91429a55.83221,55.83221,0,0,0,5.62968.031C134.23239,38.4014,120.93506,61.42159,107.4072,84.84078Z" transform="translate(-20.01144 -14.63586)"/>
  </g>
  <g>
    <path class="cls-3" d="M273.266,94.21258q-1.3872,11.86963-8.75976,18.31739-7.374,6.4497-19.60254,6.44824-13.25536,0-21.24512-9.50488-7.99072-9.50538-7.99023-25.4336V76.84637a42.61157,42.61157,0,0,1,3.72558-18.34277,27.82,27.82,0,0,1,10.5586-12.15234A29.401,29.401,0,0,1,245.77768,42.113q11.91943,0,19.11328,6.65332,7.19385,6.65478,8.375,18.41992H263.35q-1.28467-8.96631-5.5752-12.98731-4.29052-4.01952-11.99707-4.01953-9.45409,0-14.82324,6.99414-5.37012,6.99463-5.36914,19.90039v7.251q0,12.189,5.08594,19.38769a16.43648,16.43648,0,0,0,14.23242,7.19922q8.22071,0,12.61426-3.72558,4.39307-3.72363,5.832-12.97364Z" transform="translate(-20.01144 -14.63586)"/>
    <path class="cls-3" d="M282.72007,89.64032A32.843,32.843,0,0,1,285.931,74.945a23.9561,23.9561,0,0,1,8.94043-10.07032,24.33805,24.33805,0,0,1,13.07618-3.54589q11.35547,0,18.36914,7.86132,7.01367,7.86182,7.01367,20.91211v.668a33.11793,33.11793,0,0,1-3.10938,14.56641,23.5896,23.5896,0,0,1-8.88867,10.04492,24.6104,24.6104,0,0,1-13.28125,3.59668q-11.30419,0-18.31738-7.86133-7.01367-7.86034-7.01367-20.80859Zm9.55664,1.12988q0,9.249,4.29,14.84961a14.53883,14.53883,0,0,0,22.99316-.07715q4.26415-5.67772,4.26465-15.90234,0-9.145-4.3418-14.82324a13.80225,13.80225,0,0,0-11.53515-5.67774,13.64779,13.64779,0,0,0-11.3545,5.60059Q292.27621,80.34,292.27671,90.7702Z" transform="translate(-20.01144 -14.63586)"/>
    <path class="cls-3" d="M345.3021,47.611a5.67233,5.67233,0,0,1,1.41211-3.90527,5.307,5.307,0,0,1,4.1875-1.59277,5.39015,5.39015,0,0,1,4.21386,1.59277,5.62,5.62,0,0,1,1.43848,3.90527,5.62734,5.62734,0,1,1-11.252,0Zm10.27539,70.33985h-9.50488V62.35712h9.50488Z" transform="translate(-20.01144 -14.63586)"/>
    <path class="cls-3" d="M379.77866,62.35712l.30859,6.9873a20.25736,20.25736,0,0,1,16.64746-8.01562q17.62207,0,17.77735,19.88476v36.73731h-9.50488V81.1618q-.05274-6.01024-2.749-8.88867-2.69825-2.877-8.40039-2.87695A13.72,13.72,0,0,0,385.7396,71.862a16.73681,16.73681,0,0,0-5.44629,6.47461v39.61426h-9.50586V62.35712Z" transform="translate(-20.01144 -14.63586)"/>
    <path class="cls-2" d="M481.87241,48.48407H456.23276v69.4668h-6.31933V48.48407h-25.5879V43.14032h57.54688Z" transform="translate(-20.01144 -14.63586)"/>
    <path class="cls-2" d="M514.34507,67.59735A23.0259,23.0259,0,0,0,510.183,67.238a15.01894,15.01894,0,0,0-9.73633,3.21093,17.58663,17.58663,0,0,0-5.67774,9.32617v38.17579h-6.11425V62.35712h6.01172l.10253,8.83691q4.88087-9.86426,15.6709-9.86523a10.1334,10.1334,0,0,1,4.05957.668Z" transform="translate(-20.01144 -14.63586)"/>
    <path class="cls-2" d="M557.09311,117.95087a29.07791,29.07791,0,0,1-1.18164-7.75879,21.42924,21.42924,0,0,1-8.24707,6.5,25.2676,25.2676,0,0,1-10.60937,2.28613q-8.01562,0-12.97364-4.46973a14.55907,14.55907,0,0,1-4.959-11.30371,14.88036,14.88036,0,0,1,6.75684-12.8457q6.75585-4.72558,18.83105-4.72656h11.14941V79.31219q0-5.959-3.67382-9.377-3.67383-3.416-10.71289-3.417a16.76369,16.76369,0,0,0-10.63575,3.28906,9.77,9.77,0,0,0-4.21289,7.91211l-6.166-.05078q0-6.62842,6.166-11.48438a23.74559,23.74559,0,0,1,15.15723-4.85546q9.29883,0,14.66894,4.65039,5.36867,4.65087,5.52344,12.97363v26.30664q0,8.06836,1.69629,12.07519v.61622Zm-19.31933-4.41895a20.6467,20.6467,0,0,0,11.02148-2.97949,17.52816,17.52816,0,0,0,7.06445-7.96485V90.35907H544.8646q-9.19776.104-14.38672,3.36621a10.09887,10.09887,0,0,0-5.18945,8.96582,9.93644,9.93644,0,0,0,3.46875,7.75781A13.06113,13.06113,0,0,0,537.77378,113.53192Z" transform="translate(-20.01144 -14.63586)"/>
    <path class="cls-2" d="M598.91733,113.78876a16.23682,16.23682,0,0,0,10.76465-3.62207,12.74856,12.74856,0,0,0,4.70117-9.377h5.90918a17.41866,17.41866,0,0,1-3.18555,9.27442,19.95977,19.95977,0,0,1-7.78417,6.55078,23.46721,23.46721,0,0,1-10.40528,2.36328q-10.94385,0-17.34082-7.60449-6.397-7.60254-6.39648-20.44922V89.07489a34.74617,34.74617,0,0,1,2.87695-14.541,22.1687,22.1687,0,0,1,8.24707-9.76172,22.76376,22.76376,0,0,1,12.5625-3.44335q9.145,0,15.08008,5.44726a19.86167,19.86167,0,0,1,6.3457,14.335h-5.90918a14.87789,14.87789,0,0,0-15.5166-14.541q-8.3247,0-12.92285,6.01172t-4.59863,16.85253v1.79883q0,10.63477,4.59863,16.59571Q590.54185,113.78925,598.91733,113.78876Z" transform="translate(-20.01144 -14.63586)"/>
    <path class="cls-2" d="M645.77768,89.94794l-7.04,6.78222v21.22071h-6.165V39.03h6.165V89.5368l5.80664-6.26757,21.27149-20.91211h7.75879l-23.584,23.42968,25.63868,32.16407h-7.34766Z" transform="translate(-20.01144 -14.63586)"/>
    <path class="cls-2" d="M704.60776,118.97821a24.135,24.135,0,0,1-12.81933-3.49316,23.80619,23.80619,0,0,1-8.915-9.73731,30.35053,30.35053,0,0,1-3.18555-14.001v-2.21a32.71743,32.71743,0,0,1,3.1084-14.4375,24.74418,24.74418,0,0,1,8.6582-10.09668,21.36476,21.36476,0,0,1,12.02344-3.67382q10.1206,0,16.05566,6.91113,5.93555,6.91113,5.93457,18.88281v3.44238h-39.666v1.18164q0,9.45411,5.4209,15.74805a17.24314,17.24314,0,0,0,13.6416,6.29395,20.02913,20.02913,0,0,0,8.709-1.79786A19.31455,19.31455,0,0,0,720.433,106.236l3.85351,2.92871Q717.50425,118.97919,704.60776,118.97821ZM703.47788,66.57a15.36809,15.36809,0,0,0-11.68945,5.08691q-4.75342,5.08594-5.78028,13.667h33.34571v-.668q-.25782-8.01562-4.57227-13.05078A14.17518,14.17518,0,0,0,703.47788,66.57Z" transform="translate(-20.01144 -14.63586)"/>
    <path class="cls-2" d="M763.1312,67.59735a23.02582,23.02582,0,0,0-4.16211-.35937,15.019,15.019,0,0,0-9.73633,3.21093,17.58656,17.58656,0,0,0-5.67773,9.32617v38.17579h-6.11426V62.35712h6.01172L743.555,71.194q4.88085-9.86426,15.6709-9.86523a10.1334,10.1334,0,0,1,4.05957.668Z" transform="translate(-20.01144 -14.63586)"/>
  </g>
</svg>
