<svg id="Layer_1" data-name="Layer 1" xmlns="http://www.w3.org/2000/svg" viewBox="0 0 779.47826 503.6087">
  <defs>
    <style>
      .cls-1 {
        fill: #fff;
      }

      .cls-2 {
        fill: #00c4b4;
      }

      .cls-3 {
        fill: #3700b3;
      }
    </style>
  </defs>
  <g>
    <path class="cls-1" d="M413.143,250.97865c23.2506-40.28618,46.18559-80.02548,69.42457-120.29147-3.48475,0-6.03377-.14481-8.55132.07349a3.93872,3.93872,0,0,0-2.72383,1.56656c-6.42366,11.05049-12.6896,22.1924-19.0738,33.266-7.43836,12.90211-14.96394,25.75393-22.43467,38.63746q-10.51236,18.12868-20.94306,36.30439a3.073,3.073,0,0,0,.0098,2.47308C410.09517,245.57246,411.53765,248.04064,413.143,250.97865Zm-9.48153-16.962c19.98081-34.61537,39.63659-68.66767,59.643-103.32751-3.51158,0-6.15144-.11535-8.7707.06638a3.46935,3.46935,0,0,0-2.40426,1.411c-4.2422,7.13375-8.36651,14.33769-12.5189,21.52482q-11.36676,19.674-22.72244,39.35437c-5.78332,10.05312-11.55051,20.11605-17.21908,30.23384a4.52859,4.52859,0,0,0-.40708,3.54177A72.36781,72.36781,0,0,0,403.66146,234.0167Zm-9.443-17.04686c16.60664-28.76445,33.03077-57.21285,49.58324-85.88342-9.76237-1.19428-9.802-1.10482-13.95,6.15447q-18.81858,32.934-37.73864,65.80986C388.667,209.04541,388.89355,211.2049,394.21842,216.96984ZM335.839,184.126c4.44705,7.84413,8.83335,15.72664,13.35731,23.52934,8.29631,14.30911,17.05463,28.36776,24.84364,42.94575,3.4651,6.48532,7.0067,10.51242,14.97637,7.78383a47.54756,47.54756,0,0,0-1.99705-4.3427c-12.00194-20.81178-24.24492-41.48851-35.94246-62.46952C347.57049,185.28365,343.77932,181.46142,335.839,184.126Zm14.633,74.26985c-.73222-1.53567-1.45447-3.34946-2.41825-5.02436q-11.48843-19.96444-23.06356-39.879-8.124-13.95411-16.43258-27.79969a4.52249,4.52249,0,0,0-2.86073-2.04609,87.86637,87.86637,0,0,0-8.78619-.09668c5.60983,9.77841,10.84986,18.98453,16.15967,28.1503,7.502,12.94966,15.4428,25.6651,22.42127,38.88953C338.91046,257.06866,342.51442,261.06065,350.472,258.39584Zm19.603.45689c-1.09246-2.156-1.893-3.93851-2.86506-5.622Q355.8881,233.622,344.50551,214.04844q-8.3168-14.29714-16.73753-28.53335c-.473-.79789-1.39689-1.80408-2.17424-1.86158-2.96152-.21884-5.94887-.08824-9.42569-.08824,14.74936,25.54813,29.09976,50.4053,43.46463,75.28746Zm38.3552-.52635c-.95393-1.79618-1.82124-3.55089-2.79536-5.24423q-11.289-19.62443-22.62306-39.22289-8.20893-14.1336-16.61613-28.15088a4.527,4.527,0,0,0-2.85166-2.06085,86.77431,86.77431,0,0,0-8.74874-.09741c4.75912,8.40254,9.13864,16.286,13.661,24.08658,8.29567,14.3093,17.00247,28.393,24.8692,42.93247C396.763,256.92257,400.259,261.16649,408.43022,258.32638Zm-24.12377-57.60713c13.52786-23.41919,26.8252-46.43939,40.45495-70.035a55.83241,55.83241,0,0,1-5.62969-.031c-3.34735-.38992-5.26971.62788-7.02873,3.91429-5.21476,9.74272-11.07657,19.13792-16.63527,28.69812-4.89457,8.41794-9.80846,16.82744-14.49642,25.36014a7.61532,7.61532,0,0,0-.65014,5.32653C380.98124,196.11928,382.62883,197.98541,384.30645,200.71925Z"/>
    <path class="cls-2" d="M413.143,250.97865c-1.60534-2.938-3.04782-5.40619-4.29231-7.97046a3.073,3.073,0,0,1-.0098-2.47308q10.39839-18.19405,20.94306-36.30439c7.47073-12.88353,14.99631-25.73535,22.43467-38.63746,6.3842-11.07363,12.65014-22.21554,19.0738-33.266a3.93872,3.93872,0,0,1,2.72383-1.56656c2.51755-.2183,5.06657-.07349,8.55132-.07349C459.32858,170.95317,436.39359,210.69247,413.143,250.97865Z"/>
    <path class="cls-2" d="M403.66146,234.0167a72.36781,72.36781,0,0,1-4.39942-7.19532,4.52859,4.52859,0,0,1,.40708-3.54177c5.66857-10.11779,11.43576-20.18072,17.21908-30.23384q11.33007-19.69511,22.72244-39.35437c4.15239-7.18713,8.2767-14.39107,12.5189-21.52482a3.46935,3.46935,0,0,1,2.40426-1.411c2.61926-.18173,5.25912-.06638,8.7707-.06638C443.29805,165.349,423.64227,199.40133,403.66146,234.0167Z"/>
    <path class="cls-2" d="M394.21842,216.96984c-5.32487-5.76494-5.55145-7.92443-2.10542-13.91909q18.904-32.885,37.73864-65.80986c4.148-7.25929,4.18765-7.34875,13.95-6.15447C427.24919,159.757,410.82506,188.20539,394.21842,216.96984Z"/>
    <path class="cls-3" d="M335.839,184.126c7.94031-2.66457,11.73148,1.15766,15.23781,7.4467,11.69754,20.981,23.94052,41.65774,35.94246,62.46952a47.54756,47.54756,0,0,1,1.99705,4.3427c-7.96967,2.72859-11.51127-1.29851-14.97637-7.78383-7.789-14.578-16.54733-28.63664-24.84364-42.94575C344.67236,199.85263,340.28606,191.97012,335.839,184.126Z"/>
    <path class="cls-3" d="M350.472,258.39584c-7.95759,2.66481-11.56155-1.32718-14.98037-7.806-6.97847-13.22443-14.91931-25.93987-22.42127-38.88953-5.30981-9.16577-10.54984-18.37189-16.15967-28.1503a87.86637,87.86637,0,0,1,8.78619.09668,4.52249,4.52249,0,0,1,2.86073,2.04609q8.32754,13.83294,16.43258,27.79969,11.58924,19.90614,23.06356,39.879C349.01754,255.04638,349.73979,256.86017,350.472,258.39584Z"/>
    <path class="cls-3" d="M370.075,258.85273H359.63268c-14.36487-24.88216-28.71527-49.73933-43.46463-75.28746,3.47682,0,6.46417-.1306,9.42569.08824.77735.0575,1.70123,1.06369,2.17424,1.86158q8.43427,14.22788,16.73753,28.53335,11.38518,19.57194,22.70445,39.18225C368.182,254.91422,368.98256,256.69677,370.075,258.85273Z"/>
    <path class="cls-3" d="M408.43022,258.32638c-8.17126,2.84011-11.66719-1.40381-15.10479-7.75721-7.86673-14.53951-16.57353-28.62317-24.8692-42.93247-4.52232-7.80059-8.90184-15.684-13.661-24.08658a86.77431,86.77431,0,0,1,8.74874.09741,4.527,4.527,0,0,1,2.85166,2.06085q8.41839,14.00927,16.61613,28.15088,11.37069,19.57709,22.62306,39.22289C406.609,254.77549,407.47629,256.5302,408.43022,258.32638Z"/>
    <path class="cls-2" d="M384.30645,200.71925c-1.67762-2.73384-3.32521-4.6-3.9853-6.76691a7.61532,7.61532,0,0,1,.65014-5.32653c4.688-8.5327,9.60185-16.9422,14.49642-25.36014,5.5587-9.5602,11.42051-18.9554,16.63527-28.69812,1.759-3.28641,3.68138-4.30421,7.02873-3.91429a55.83241,55.83241,0,0,0,5.62969.031C411.13165,154.27986,397.83431,177.30006,384.30645,200.71925Z"/>
  </g>
  <g>
    <path class="cls-3" d="M173.52819,348.32875q-1.3872,11.86962-8.75976,18.31738-7.374,6.4497-19.60254,6.44824-13.25538,0-21.24512-9.50488-7.99072-9.50538-7.99023-25.43359v-7.19336a42.61159,42.61159,0,0,1,3.72558-18.34278,27.82,27.82,0,0,1,10.5586-12.15234,29.4009,29.4009,0,0,1,15.82519-4.23828q11.91943,0,19.11328,6.65332,7.19385,6.65478,8.375,18.41992h-9.916q-1.28467-8.96631-5.5752-12.98731-4.29053-4.01952-11.99707-4.01953-9.45409,0-14.82324,6.99414-5.37012,6.99464-5.36914,19.90039v7.251q0,12.189,5.08594,19.3877a16.4365,16.4365,0,0,0,14.23242,7.19922q8.22071,0,12.61426-3.72559,4.39306-3.72363,5.832-12.97363Z"/>
    <path class="cls-3" d="M182.98229,343.75648a32.843,32.843,0,0,1,3.21094-14.69531,23.956,23.956,0,0,1,8.94043-10.07031,24.338,24.338,0,0,1,13.07617-3.5459q11.35548,0,18.36914,7.86133,7.01369,7.86182,7.01368,20.91211v.668a33.11793,33.11793,0,0,1-3.10938,14.56641,23.58966,23.58966,0,0,1-8.88867,10.04492,24.61042,24.61042,0,0,1-13.28125,3.59668q-11.3042,0-18.31738-7.86133-7.01367-7.86034-7.01368-20.80859Zm9.55665,1.12988q0,9.249,4.29,14.84961a14.53884,14.53884,0,0,0,22.99317-.07715q4.26416-5.67773,4.26465-15.90234,0-9.145-4.3418-14.82324a13.80225,13.80225,0,0,0-11.53516-5.67774,13.64776,13.64776,0,0,0-11.35449,5.60059Q192.53844,334.45619,192.53894,344.88636Z"/>
    <path class="cls-3" d="M245.56433,301.72718a5.67233,5.67233,0,0,1,1.41211-3.90527,5.307,5.307,0,0,1,4.1875-1.59277,5.39015,5.39015,0,0,1,4.21386,1.59277,5.62,5.62,0,0,1,1.43848,3.90527,5.62734,5.62734,0,1,1-11.25195,0ZM255.83972,372.067h-9.50489V316.47328h9.50489Z"/>
    <path class="cls-3" d="M280.04089,316.47328l.30859,6.9873a20.25736,20.25736,0,0,1,16.64746-8.01562q17.62207,0,17.77735,19.88476V372.067H305.2694V335.278q-.05273-6.01026-2.749-8.88868-2.69824-2.877-8.40039-2.877a13.72007,13.72007,0,0,0-8.11816,2.46582,16.73688,16.73688,0,0,0-5.44629,6.47461V372.067h-9.50586V316.47328Z"/>
    <path class="cls-2" d="M382.13464,302.60023H356.495V372.067h-6.31934v-69.4668H324.58776v-5.34375h57.54688Z"/>
    <path class="cls-2" d="M414.60729,321.71351a23.02571,23.02571,0,0,0-4.1621-.35937,15.019,15.019,0,0,0-9.73633,3.21093,17.5866,17.5866,0,0,0-5.67774,9.32618V372.067h-6.11426V316.47328h6.01172l.10254,8.83691q4.88087-9.86426,15.6709-9.86523a10.13321,10.13321,0,0,1,4.05957.668Z"/>
    <path class="cls-2" d="M457.35534,372.067a29.07791,29.07791,0,0,1-1.18164-7.75879,21.42931,21.42931,0,0,1-8.24707,6.5,25.26744,25.26744,0,0,1-10.60937,2.28613q-8.01562,0-12.97364-4.46972a14.55909,14.55909,0,0,1-4.959-11.30372,14.88038,14.88038,0,0,1,6.75683-12.8457q6.75586-4.72559,18.83106-4.72656h11.14941v-6.32031q0-5.959-3.67383-9.377-3.67381-3.416-10.71289-3.417a16.76368,16.76368,0,0,0-10.63574,3.28906,9.77,9.77,0,0,0-4.21289,7.91211l-6.166-.05078q0-6.62841,6.166-11.48437a23.74554,23.74554,0,0,1,15.15723-4.85547q9.29883,0,14.66894,4.65039,5.36865,4.65087,5.52344,12.97363v26.30664q0,8.06836,1.69629,12.0752v.61621ZM438.036,367.64808a20.6467,20.6467,0,0,0,11.02148-2.97949,17.52824,17.52824,0,0,0,7.06445-7.96484V344.47523H445.12683q-9.19776.104-14.38672,3.36621a10.09889,10.09889,0,0,0-5.18946,8.96582,9.93644,9.93644,0,0,0,3.46875,7.75781A13.06117,13.06117,0,0,0,438.036,367.64808Z"/>
    <path class="cls-2" d="M499.17956,367.90492a16.23682,16.23682,0,0,0,10.76465-3.62207,12.74855,12.74855,0,0,0,4.70117-9.377h5.90918a17.41863,17.41863,0,0,1-3.18555,9.27441,19.95964,19.95964,0,0,1-7.78418,6.55078,23.467,23.467,0,0,1-10.40527,2.36328q-10.94385,0-17.34082-7.60449-6.397-7.60254-6.39648-20.44922v-1.84961a34.74609,34.74609,0,0,1,2.877-14.541,22.16864,22.16864,0,0,1,8.24707-9.76172,22.76377,22.76377,0,0,1,12.5625-3.44336q9.145,0,15.08008,5.44726a19.86167,19.86167,0,0,1,6.3457,14.335h-5.90918a14.87789,14.87789,0,0,0-15.5166-14.541q-8.32471,0-12.92285,6.01172t-4.59864,16.85254v1.79882q0,10.63477,4.59864,16.59571Q490.80408,367.90541,499.17956,367.90492Z"/>
    <path class="cls-2" d="M546.03991,344.0641l-7.04,6.78222V372.067h-6.165v-78.9209h6.165V343.653l5.80664-6.26758L566.078,316.47328h7.75879L550.2528,339.903,575.89147,372.067h-7.34765Z"/>
    <path class="cls-2" d="M604.87,373.09437a24.135,24.135,0,0,1-12.81934-3.49316,23.80626,23.80626,0,0,1-8.915-9.73731,30.35064,30.35064,0,0,1-3.18554-14.001v-2.21a32.71736,32.71736,0,0,1,3.1084-14.4375,24.74412,24.74412,0,0,1,8.6582-10.09668,21.3647,21.3647,0,0,1,12.02344-3.67383q10.12061,0,16.05566,6.91113,5.93555,6.91113,5.93457,18.88281v3.44239h-39.666v1.18164q0,9.45409,5.42089,15.748a17.24318,17.24318,0,0,0,13.64161,6.29395,20.02913,20.02913,0,0,0,8.709-1.79785,19.31469,19.31469,0,0,0,6.85938-5.75489l3.85351,2.92872Q617.76648,373.09534,604.87,373.09437Zm-1.12988-52.4082a15.36812,15.36812,0,0,0-11.68946,5.08691q-4.75341,5.08594-5.78027,13.667h33.3457v-.668q-.2578-8.01562-4.57226-13.05079A14.17519,14.17519,0,0,0,603.74011,320.68617Z"/>
    <path class="cls-2" d="M663.39343,321.71351a23.0259,23.0259,0,0,0-4.16211-.35937,15.019,15.019,0,0,0-9.73633,3.21093,17.58659,17.58659,0,0,0-5.67773,9.32618V372.067H637.703V316.47328h6.01172l.10254,8.83691q4.88085-9.86426,15.67089-9.86523a10.13321,10.13321,0,0,1,4.05957.668Z"/>
  </g>
</svg>
